<?xml version="1.0" encoding="utf-8"?>
<!-- Generator: Adobe Illustrator 23.0.1, SVG Export Plug-In . SVG Version: 6.00 Build 0)  -->
<svg version="1.1" id="Layer_1" xmlns="http://www.w3.org/2000/svg" xmlns:xlink="http://www.w3.org/1999/xlink" x="0px" y="0px"
	 viewBox="0 0 273.93 99.13" style="enable-background:new 0 0 273.93 99.13;" xml:space="preserve">
<style type="text/css">
	.st0{fill:#206fa8;}
</style>
<g>
	<polygon class="st0" points="67.34,86.5 60.29,39.3 59.88,36.14 59.27,36.14 59.27,39.3 59.27,86.5 49.05,86.5 49.05,11.41 
		62.54,11.41 69.08,45.74 69.59,49.73 69.79,49.73 70.3,45.74 76.84,11.41 90.33,11.41 90.33,86.5 80.11,86.5 80.11,39.3 
		80.11,36.14 79.5,36.14 79.09,39.3 72.04,86.5 	"/>
	<path class="st0" d="M107.19,86.5H98.5V11.41h8.69c20.43,0.1,21.96,8.17,21.96,37.6C129.15,78.33,127.62,86.4,107.19,86.5
		 M109.53,75.47c7.77,0,8.28-1.94,8.17-26.56c0.1-24.52-0.41-26.46-8.17-26.46V75.47z"/>
	<path class="st0" d="M133.44,86.5l11.34-75.09h13.49l11.34,75.09h-10.73l-2.04-15.32h-10.62l-2.04,15.32H133.44z M152.14,35.83
		l-0.31-1.94h-0.61l-0.31,1.94l-3.16,23.7h7.56L152.14,35.83z"/>
	<path class="st0" d="M194.43,86.5l-5.72-31.67h-2.96V86.5h-11.03V11.41h11.03c13.08,0,18.8,7.56,18.8,21.66
		c0,7.46-1.94,14.2-6.13,17.06l7.05,36.37H194.43z M185.75,22.34v22.27c3.06,0,8.17-0.41,8.17-11.14
		C193.92,22.75,188.82,22.34,185.75,22.34"/>
	<rect x="211.6" y="11.41" class="st0" width="11.03" height="75.09"/>
	<path class="st0" d="M244.49,10.59c13.28-0.3,15.43,11.54,15.43,19.93l-10.83,1.02c0-5-0.72-10.83-4.39-10.83
		c-2.86,0.1-3.78,3.17-3.78,7.46c0,5.11,4.39,10.83,8.69,17.06c5.11,7.66,10.32,15.12,10.32,23.2c0,10.01-3.27,18.9-15.32,18.9
		c-14.2,0-16.04-10.73-16.04-21.87l10.83-1.02c0,6.23,0.61,12.77,5.21,12.77c3.27,0,4.5-3.58,4.5-8.28c0-5-4.7-11.03-8.89-17.37
		c-5.21-7.66-10.12-15.32-10.12-23.39C230.09,19.99,234.07,10.8,244.49,10.59"/>
	<path class="st0" d="M7.16,86.15L18.5,11.06h13.49l11.34,75.09H32.6l-2.04-15.32L17.89,86.15H7.16z M25.86,35.48l-0.31-1.94h-0.61
		l-0.31,1.94l-4.61,35.36l9.01-11.66L25.86,35.48z"/>
</g>
</svg>
